<?xml version="1.0" encoding="utf-8"?>
<!-- Generator: Adobe Illustrator 23.0.1, SVG Export Plug-In . SVG Version: 6.00 Build 0)  -->
<svg version="1.1" id="Layer_1" xmlns="http://www.w3.org/2000/svg" xmlns:xlink="http://www.w3.org/1999/xlink" x="0px" y="0px"
	 viewBox="0 0 230 109" style="enable-background:new 0 0 230 109;" xml:space="preserve">
<style type="text/css">
	.st0{fill:#3F738D;}
	.st1{fill:#A2A9AD;}
	.st2{fill:none;}
</style>
<title>TechInsights-Logo-Colour</title>
<path class="st0" d="M30.1,14.9v35.2h-9.9V14.9H7.3V5.6H43v9.3H30.1z"/>
<path class="st0" d="M68.9,34.8v1.3c0,0.4,0,0.8-0.1,1.2H46.3c0.1,0.8,0.3,1.7,0.8,2.4c0.4,0.7,1,1.3,1.7,1.8
	c0.7,0.5,1.5,0.9,2.3,1.2c0.9,0.3,1.8,0.4,2.7,0.4c1.4,0,2.9-0.3,4.1-0.9c1.1-0.6,2-1.4,2.8-2.3l7.1,4.5c-1.5,2.1-3.5,3.8-5.8,4.9
	c-2.6,1.2-5.5,1.8-8.4,1.8c-2.3,0-4.5-0.4-6.6-1.1c-2-0.7-3.9-1.8-5.5-3.2c-1.6-1.4-2.9-3.2-3.7-5.2c-0.9-2.2-1.4-4.6-1.3-7
	c0-2.4,0.4-4.7,1.3-6.9c0.8-2,2-3.8,3.6-5.3c1.5-1.4,3.3-2.6,5.3-3.3c2.1-0.8,4.4-1.2,6.6-1.2c2.2,0,4.3,0.4,6.3,1.2
	c1.9,0.7,3.6,1.9,5,3.3c1.4,1.5,2.5,3.3,3.2,5.3C68.6,30,69,32.4,68.9,34.8z M59.5,30.9c0-1.5-0.5-3-1.5-4.2
	c-1.2-1.2-2.9-1.9-4.6-1.8c-0.9,0-1.9,0.1-2.8,0.5c-0.8,0.3-1.5,0.7-2.2,1.3c-0.6,0.5-1.1,1.2-1.5,1.9c-0.4,0.7-0.6,1.5-0.6,2.3
	L59.5,30.9z"/>
<path class="st0" d="M96.2,29c-0.6-0.8-1.4-1.4-2.4-1.8c-1-0.5-2-0.7-3.1-0.7c-1,0-2,0.2-2.9,0.7c-0.9,0.4-1.6,1-2.3,1.8
	c-0.6,0.8-1.1,1.6-1.5,2.5c-0.4,1-0.5,2-0.5,3.1c0,1,0.2,2.1,0.5,3.1c0.3,1,0.8,1.9,1.5,2.6c0.6,0.7,1.4,1.3,2.3,1.7
	c0.9,0.4,2,0.6,3,0.6c1.1,0,2.1-0.2,3.1-0.6c1-0.4,1.8-1,2.5-1.8l5.7,7c-1.4,1.4-3.1,2.4-5,3c-2.1,0.7-4.3,1-6.5,1
	c-2.3,0-4.7-0.4-6.9-1.1c-2.1-0.7-4-1.8-5.6-3.3c-1.6-1.5-2.9-3.2-3.7-5.2c-0.9-2.2-1.4-4.6-1.3-6.9c0-2.4,0.4-4.7,1.3-6.9
	c0.9-2,2.1-3.8,3.7-5.2c1.6-1.5,3.5-2.6,5.5-3.4c2.2-0.8,4.5-1.2,6.8-1.2c1.1,0,2.2,0.1,3.4,0.3c1.1,0.2,2.2,0.5,3.2,0.8
	c1,0.3,1.9,0.8,2.8,1.3c0.8,0.5,1.6,1.1,2.3,1.8L96.2,29z"/>
<path class="st0" d="M125.1,50.1V33.2c0-0.8-0.1-1.7-0.2-2.5c-0.1-0.7-0.3-1.4-0.7-2.1c-0.7-1.3-2-2.1-3.5-2c-1.5-0.1-3,0.6-3.9,1.9
	c-0.9,1.4-1.4,3-1.4,4.7v16.9h-9.7V5.6h9.7v17.2h0.1c0.8-1.4,1.9-2.5,3.2-3.3c1.6-1,3.4-1.5,5.3-1.5c1.8-0.1,3.5,0.3,5.1,1.1
	c1.3,0.7,2.4,1.7,3.3,2.9c0.9,1.2,1.5,2.6,1.8,4.1c0.4,1.5,0.6,3.1,0.6,4.6v19.4H125.1z"/>
<path class="st1" d="M160.2,89.4V72.5c0-0.8-0.1-1.7-0.2-2.5c-0.1-0.7-0.3-1.4-0.7-2.1c-0.7-1.3-2-2.1-3.5-2c-1.5-0.1-3,0.6-3.9,1.9
	c-0.9,1.4-1.4,3-1.4,4.7v16.9h-9.7V44.9h9.7v17.2h0.1c0.8-1.4,1.9-2.5,3.2-3.3c1.6-1,3.4-1.5,5.3-1.5c1.8-0.1,3.5,0.3,5.1,1.1
	c1.3,0.7,2.4,1.7,3.3,2.9c0.9,1.2,1.5,2.6,1.8,4.1c0.4,1.5,0.6,3.1,0.6,4.6v19.3H160.2z"/>
<path class="st1" d="M4.2,89.4V44.9h9.9v44.5H4.2z"/>
<path class="st1" d="M40.6,89.4v-17c0-0.8-0.1-1.7-0.2-2.5c-0.1-0.7-0.4-1.4-0.7-2.1c-0.3-0.6-0.8-1.1-1.4-1.4
	c-0.7-0.4-1.5-0.6-2.3-0.5c-0.8,0-1.7,0.2-2.4,0.5c-0.7,0.3-1.3,0.9-1.7,1.5c-0.5,0.7-0.8,1.4-1,2.2c-0.2,0.8-0.3,1.7-0.3,2.5v16.9
	H20.2V58.3h9.9v4.3h0.1c0.4-0.7,0.9-1.4,1.5-2c0.6-0.7,1.3-1.2,2.1-1.7c0.8-0.5,1.7-0.8,2.7-1.1c1-0.3,2-0.4,3.1-0.4
	c1.8-0.1,3.7,0.3,5.3,1.1c1.4,0.7,2.6,1.7,3.5,2.9c0.9,1.2,1.6,2.6,1.9,4.1c0.4,1.5,0.6,3.1,0.6,4.6v19.3H40.6z"/>
<path class="st1" d="M76,67.5c-0.9-0.8-1.9-1.5-2.9-2c-1.1-0.5-2.3-0.8-3.6-0.8c-0.9,0-1.8,0.2-2.7,0.6c-0.8,0.3-1.3,1.1-1.2,1.9
	c0,0.9,0.5,1.6,1.3,1.9c1.4,0.5,2.9,1,4.3,1.2c1.2,0.3,2.4,0.6,3.5,1.1c1.2,0.4,2.2,1,3.2,1.8c1,0.7,1.7,1.7,2.3,2.7
	c0.6,1.2,0.9,2.5,0.9,3.9c0.1,3.3-1.5,6.4-4.3,8.2c-1.3,0.8-2.8,1.5-4.3,1.8c-1.6,0.4-3.1,0.6-4.7,0.6c-2.5,0-5.1-0.4-7.5-1.2
	c-2.3-0.7-4.4-1.9-6.1-3.6l5.7-6c1,1,2.1,1.9,3.4,2.5c1.3,0.7,2.8,1,4.2,1c0.9,0,1.7-0.2,2.5-0.6c0.8-0.4,1.3-1.2,1.2-2.1
	c0-1-0.6-1.8-1.5-2.1c-1.5-0.6-3.1-1.1-4.7-1.4c-1.1-0.3-2.2-0.6-3.2-1c-1.1-0.4-2-1-2.9-1.7c-0.9-0.7-1.6-1.6-2.1-2.6
	c-0.6-1.2-0.8-2.5-0.8-3.8c-0.1-1.7,0.4-3.3,1.2-4.8c0.8-1.3,1.8-2.4,3.1-3.2c1.3-0.8,2.7-1.5,4.2-1.8c1.5-0.4,3-0.6,4.5-0.6
	c2.3,0,4.6,0.4,6.8,1.1c2.1,0.7,4,1.8,5.7,3.3L76,67.5z"/>
<path class="st1" d="M85.9,89.4V58.3h9.9v31.1H85.9z"/>
<path class="st1" d="M134.9,86.5c0.1,2.7-0.4,5.4-1.3,7.9c-0.8,2.1-2,4-3.7,5.6c-1.7,1.5-3.6,2.6-5.8,3.3c-2.4,0.7-5,1.1-7.5,1.1
	c-2.9,0-5.7-0.4-8.5-1.2c-2.7-0.7-5.3-2-7.5-3.6l5.1-7.3c1.5,1.3,3.2,2.3,5,3c1.7,0.6,3.5,1,5.3,1c3,0,5.2-0.8,6.6-2.4
	c1.5-1.7,2.3-4,2.1-6.3v-1.9h-0.2c-1,1.3-2.4,2.3-3.9,3c-1.7,0.8-3.6,1.2-5.6,1.1c-2.2,0-4.3-0.4-6.3-1.3c-1.8-0.8-3.4-2-4.7-3.5
	c-1.3-1.5-2.3-3.2-2.9-5.1c-1.3-4-1.3-8.3,0-12.3c0.6-1.9,1.6-3.7,2.9-5.2c1.3-1.5,2.9-2.7,4.7-3.6c2-0.9,4.1-1.4,6.2-1.3
	c1.9,0,3.8,0.4,5.6,1.1c1.8,0.8,3.3,2.1,4.3,3.7h0.1v-4h9.7L134.9,86.5z M125.1,73.7c0-1-0.2-2-0.5-3c-0.3-0.9-0.9-1.8-1.5-2.5
	c-0.7-0.7-1.5-1.3-2.4-1.7c-1-0.4-2-0.6-3.1-0.6c-1.1,0-2.1,0.2-3.1,0.6c-0.9,0.4-1.6,1-2.3,1.7c-0.6,0.7-1.1,1.6-1.4,2.5
	c-0.3,1-0.5,2-0.5,3.1c0,1,0.2,2,0.5,3c0.3,0.9,0.8,1.8,1.4,2.5c1.3,1.6,3.3,2.5,5.4,2.4c3.1,0,5.9-1.9,7-4.9
	C124.9,75.8,125.1,74.7,125.1,73.7L125.1,73.7z"/>
<path class="st1" d="M188.1,65.9v11.9c-0.1,1.2,0.2,2.3,0.8,3.3c0.8,0.8,1.9,1.2,3,1.1c0.5,0,1.1,0,1.6-0.1c0.6-0.1,1.3-0.4,1.8-0.6
	v7.6c-1,0.3-2,0.6-3,0.8c-1.1,0.2-2.2,0.3-3.2,0.3c-1.8,0-3.6-0.2-5.2-0.8c-1.3-0.4-2.5-1.2-3.4-2.3c-0.9-1-1.5-2.2-1.8-3.5
	c-0.4-1.5-0.6-3-0.6-4.5V65.9h-5v-7.6h4.9v-8.2h10.1v8.2h7.3v7.6H188.1z"/>
<path class="st1" d="M220.5,67.5c-0.9-0.8-1.9-1.5-2.9-2c-1.1-0.5-2.3-0.8-3.6-0.8c-0.9,0-1.8,0.2-2.6,0.6c-0.8,0.3-1.3,1.1-1.2,1.9
	c0,0.9,0.5,1.6,1.4,1.9c1.4,0.5,2.9,1,4.3,1.2c1.2,0.3,2.4,0.6,3.5,1.1c1.2,0.4,2.2,1,3.2,1.8c1,0.7,1.7,1.7,2.3,2.7
	c0.6,1.2,0.9,2.5,0.9,3.9c0.1,3.3-1.5,6.4-4.3,8.2c-1.3,0.8-2.8,1.5-4.3,1.8c-1.6,0.4-3.2,0.6-4.8,0.6c-2.5,0-5.1-0.4-7.5-1.2
	c-2.3-0.7-4.4-1.9-6.1-3.6l5.8-6c1,1,2.1,1.9,3.4,2.5c1.3,0.7,2.8,1,4.2,1c0.9,0,1.7-0.2,2.5-0.6c0.8-0.4,1.3-1.2,1.2-2.1
	c0-1-0.6-1.8-1.5-2.1c-1.5-0.6-3.1-1.1-4.7-1.4c-1.1-0.3-2.2-0.6-3.2-1c-1.1-0.4-2-1-2.9-1.7c-0.9-0.7-1.6-1.6-2.1-2.6
	c-0.6-1.2-0.9-2.5-0.8-3.8c0-1.7,0.4-3.3,1.2-4.8c0.8-1.3,1.8-2.4,3.1-3.2c1.3-0.8,2.7-1.5,4.1-1.8c1.5-0.4,3-0.6,4.5-0.6
	c2.3,0,4.6,0.4,6.8,1.1c2.1,0.7,4,1.8,5.6,3.3L220.5,67.5z"/>
<rect x="-40.3" y="-31.9" class="st2" width="310.5" height="172.8"/>
</svg>
